# xmcd CD database file
#
# Track frame offsets:
#	150
#	16922
#	33664
#	49857
#	57522
#	77197
#	101775
#	108300
#	124050
#	143275
#	156889
#	173130
#	197487
#	213844
#	235747
#	253543
#	271167
#	288600
#
# Disc length: 4096 seconds
#
# Revision: 1
# Processed by: cddbd v1.5.1PL0 Copyright (c) Steve Scherf et al.
# Submitted via: CDex 1.51
#
DISCID=f80ffe12
DTITLE=Mannheim Steamroller - Christmas Demo (not for resale)
DYEAR=1995
DGENRE=New Age
TTITLE0=Deck the Halls
TTITLE1=We Three Kings
TTITLE2=Good King Wenceslas
TTITLE3=God Rest Ye Merry Gentlemen V1
TTITLE4=God Rest Ye Merry Gentlemen V2
TTITLE5=Stille Nacht
TTITLE6=Hark! The Herald Trumpets Sing
TTITLE7=Hark! The Herald Angels Sing
TTITLE8=Veni Veni (O Come O Come Emanuel)
TTITLE9=The Holly And The Ivy
TTITLE10=Traditions of Christmas
TTITLE11=Cantique De Noel (O Holy Night)
TTITLE12=Joy to the World
TTITLE13=Pat a Pan
TTITLE14=O Little Town of Bethlehem
TTITLE15=Angels We Have Heard On High
TTITLE16=Los Peces En El Rio
TTITLE17=Christmas Lullaby
EXTD=YEAR: 1995
EXTT0=
EXTT1=
EXTT2=
EXTT3=
EXTT4=
EXTT5=
EXTT6=
EXTT7=
EXTT8=
EXTT9=
EXTT10=
EXTT11=
EXTT12=
EXTT13=
EXTT14=
EXTT15=
EXTT16=
EXTT17=
PLAYORDER=
